<?xml version="1.0" standalone="no"?><!DOCTYPE svg PUBLIC "-//W3C//DTD SVG 1.1//EN" "http://www.w3.org/Graphics/SVG/1.1/DTD/svg11.dtd"><svg t="1577599891752" class="icon" viewBox="0 0 1024 1024" version="1.1" xmlns="http://www.w3.org/2000/svg" p-id="1357" xmlns:xlink="http://www.w3.org/1999/xlink" width="64" height="64"><defs><style type="text/css"></style></defs><path d="M676.053333 350.208l-1.152-1.152a25.6 25.6 0 0 0-36.181333 0L512 475.733333l-126.72-126.72a25.557333 25.557333 0 0 0-36.224 0 25.514667 25.514667 0 0 0 0 36.266667L475.818667 512 349.013333 638.72a25.514667 25.514667 0 0 0 0 36.138667l1.194667 1.152a25.6 25.6 0 0 0 36.224 0l126.72-126.72 126.72 126.72a25.6 25.6 0 1 0 36.181333-36.224l-126.72-126.72 126.72-126.72a25.6 25.6 0 0 0 0-36.181334m107.434667-109.738666a383.914667 383.914667 0 0 0-543.018667 0 383.957333 383.957333 0 0 0 0 543.018666 383.872 383.872 0 0 0 543.018667 0 383.872 383.872 0 0 0 0-543.018666m-36.181333 506.837333a332.757333 332.757333 0 0 1-470.613334 0 332.672 332.672 0 0 1 0-470.613333 332.714667 332.714667 0 0 1 470.613334 0 332.714667 332.714667 0 0 1 0 470.613333" p-id="1358"></path></svg>