<?xml version="1.0" standalone="no"?><!DOCTYPE svg PUBLIC "-//W3C//DTD SVG 1.1//EN" "http://www.w3.org/Graphics/SVG/1.1/DTD/svg11.dtd"><svg t="1577758534596" class="icon" viewBox="0 0 1038 1024" version="1.1" xmlns="http://www.w3.org/2000/svg" p-id="3613" xmlns:xlink="http://www.w3.org/1999/xlink" width="64.875" height="64"><defs><style type="text/css"></style></defs><path d="M925.3657 229.069708h-194.676806a244.643853 244.643853 0 0 0 71.381495-111.614702A90.200253 90.200253 0 0 0 778.709172 28.552598a89.551331 89.551331 0 0 0-89.55133-22.712294 247.888466 247.888466 0 0 0-160.283904 150.550064A247.888466 247.888466 0 0 0 367.941112 3.893536a90.849176 90.849176 0 0 0-112.263625 111.614702 244.643853 244.643853 0 0 0 73.977186 113.56147H112.914496A114.210393 114.210393 0 0 0 0.001948 343.929024v137.57161a22.712294 22.712294 0 0 0 22.712294 22.712294h55.807351v397.789607a115.508238 115.508238 0 0 0 108.370089 121.997465h691.751584a115.508238 115.508238 0 0 0 108.370089-121.348542V504.212928h28.552598a22.712294 22.712294 0 0 0 22.712294-22.712294V343.929024a114.210393 114.210393 0 0 0-112.912547-114.859316zM973.385978 343.929024v95.391635H556.128691V343.280101l59.700887 59.700888a32.446134 32.446134 0 0 0 46.073511-46.073511l-64.892269-64.892269h324.461343a48.669202 48.669202 0 0 1 51.913815 51.913815zM707.327677 64.892269h6.489227a25.956907 25.956907 0 0 1 18.169835 7.787072 24.659062 24.659062 0 0 1 6.489227 24.659062 182.996198 182.996198 0 0 1-160.932827 129.784537 182.996198 182.996198 0 0 1 129.784538-162.230671zM324.463291 72.679341A25.956907 25.956907 0 0 1 342.633127 64.892269h6.489227a182.996198 182.996198 0 0 1 129.784537 160.932826 182.996198 182.996198 0 0 1-160.932826-129.784537 25.307985 25.307985 0 0 1 6.489226-23.361217zM64.894217 343.929024a48.669202 48.669202 0 0 1 48.020279-49.967047h337.439797l-64.892269 64.892269a32.446134 32.446134 0 1 0 46.073511 46.073511l64.892269-64.892269v99.285171H64.894217z m78.519645 558.073511V504.212928h347.82256v454.245881H186.891682c-24.010139 0-43.47782-25.956907-43.47782-56.456274z m778.707224 0c0 30.499366-20.116603 57.105196-43.47782 57.105196h-324.461343v-454.245881h365.992395z" p-id="3614"></path></svg>