<?xml version="1.0" standalone="no"?><!DOCTYPE svg PUBLIC "-//W3C//DTD SVG 1.1//EN" "http://www.w3.org/Graphics/SVG/1.1/DTD/svg11.dtd"><svg t="1577758579621" class="icon" viewBox="0 0 1024 1024" version="1.1" xmlns="http://www.w3.org/2000/svg" p-id="4379" xmlns:xlink="http://www.w3.org/1999/xlink" width="64" height="64"><defs><style type="text/css"></style></defs><path d="M829.9 205.9v-43.2c0-26-10.3-51-28.8-69.4-18.4-18.4-43.4-28.7-69.4-28.7H174.6c-54.2 0-98.2 43.9-98.2 98.1v698.5c0 26 10.3 51 28.8 69.4 18.4 18.4 43.4 28.7 69.4 28.7H873c26 0 36.4-9.6 51.1-23.6 18.9-17.9 23.5-48.5 23.5-74.6V319.7c0-73.1-85.6-113.8-117.7-113.8zM877 841.6c0 21.7-25.4 47.1-47.1 47.1H618l-431 0.3c-22.2 0-40.2-17.9-40.2-40V175c0-22.1 17.9-40 40.2-40h532.3c10.7 0 20.9 4.2 28.4 11.7 7.5 7.5 11.8 17.7 11.8 28.3l-0.3 548.9c0 21.7 9.7 47.3 31.4 47.3s39.2-13.9 39.2-35.5V300.1c10.4 0 47.1 18.3 47.1 47.1v494.4zM653.3 253H253c-19.5 0-35.3 15.8-35.3 35.3 0 19.5 15.8 35.3 35.3 35.3h400.3c19.5 0 35.3-15.8 35.3-35.3 0-19.5-15.8-35.3-35.3-35.3z m0 188.4H253c-19.5 0-35.3 15.8-35.3 35.3 0 19.5 15.8 35.3 35.3 35.3h400.3c19.5 0 35.3-15.8 35.3-35.3 0-19.5-15.8-35.3-35.3-35.3zM417.8 629.7H253c-19.5 0-35.3 15.8-35.3 35.3s15.8 35.3 35.3 35.3h164.8c19.5 0 35.3-15.8 35.3-35.3s-15.8-35.3-35.3-35.3z" p-id="4380"></path></svg>