<?xml version="1.0" standalone="no"?><!DOCTYPE svg PUBLIC "-//W3C//DTD SVG 1.1//EN" "http://www.w3.org/Graphics/SVG/1.1/DTD/svg11.dtd"><svg t="1577600344378" class="icon" viewBox="0 0 1024 1024" version="1.1" xmlns="http://www.w3.org/2000/svg" p-id="1480" xmlns:xlink="http://www.w3.org/1999/xlink" width="64" height="64"><defs><style type="text/css"></style></defs><path d="M759.936 170.666667H306.773333C278.741333 170.666667 256 192.128 256 218.538667v629.589333C256 874.581333 278.741333 896 306.730667 896H759.893333c27.989333 0 50.730667-21.461333 50.730667-47.872V218.538667C810.666667 192.085333 787.925333 170.666667 759.936 170.666667z m0 653.568c0 13.141333-11.392 23.893333-25.344 23.893333H332.074667c-13.952 0-25.344-10.752-25.344-23.893333v-115.285334H759.893333v115.285334zM306.773333 661.077333V242.432c0-13.141333 11.392-23.893333 25.344-23.893333h402.517334c13.952 0 25.344 10.752 25.344 23.893333v418.645333H306.773333z m183.04 119.338667c0 22.698667 19.498667 41.130667 43.562667 41.130667 24.064 0 43.562667-18.432 43.562667-41.130667s-19.498667-41.130667-43.562667-41.130667c-24.064 0-43.562667 18.432-43.562667 41.130667z" p-id="1481"></path></svg>