<?xml version="1.0" standalone="no"?><!DOCTYPE svg PUBLIC "-//W3C//DTD SVG 1.1//EN" "http://www.w3.org/Graphics/SVG/1.1/DTD/svg11.dtd"><svg t="1577600461527" class="icon" viewBox="0 0 1024 1024" version="1.1" xmlns="http://www.w3.org/2000/svg" p-id="5543" xmlns:xlink="http://www.w3.org/1999/xlink" width="64" height="64"><defs><style type="text/css"></style></defs><path d="M883.754667 279.381333l-362.666667-170.666666a21.034667 21.034667 0 0 0-18.176 0l-362.666667 170.666666a21.312 21.312 0 0 0-12.245333 19.306667c0 475.776 346.602667 618.666667 384 618.666667s384-142.890667 384-618.666667a21.312 21.312 0 0 0-12.245333-19.306667zM513.578667 874.752c-3.392-0.490667-336.341333-106.666667-342.826667-562.56L512 151.573333l341.226667 160.576c-6.464 455.914667-339.370667 562.090667-339.626667 562.581334z" p-id="5544"></path><path d="M420.416 475.605333a21.333333 21.333333 0 0 0-30.165333 30.165334l85.333333 85.333333A21.354667 21.354667 0 0 0 490.666667 597.333333h0.704a21.376 21.376 0 0 0 15.36-7.296l149.333333-170.666666a21.333333 21.333333 0 0 0-32.128-28.096l-134.314667 153.514666z" p-id="5545"></path></svg>