<?xml version="1.0" standalone="no"?><!DOCTYPE svg PUBLIC "-//W3C//DTD SVG 1.1//EN" "http://www.w3.org/Graphics/SVG/1.1/DTD/svg11.dtd"><svg t="1577777750029" class="icon" viewBox="0 0 1024 1024" version="1.1" xmlns="http://www.w3.org/2000/svg" p-id="3780" xmlns:xlink="http://www.w3.org/1999/xlink" width="64" height="64"><defs><style type="text/css"></style></defs><path d="M975.082667 432.917333a21.333333 21.333333 0 0 0-30.165334 0l-50.368 50.368A383.552 383.552 0 0 0 186.538667 308.693333a21.333333 21.333333 0 1 0 36.181333 22.613334 341.056 341.056 0 0 1 629.034667 148.928l-47.338667-47.317334a21.333333 21.333333 0 0 0-30.165333 30.165334l85.333333 85.333333a21.333333 21.333333 0 0 0 30.165333 0l85.333334-85.333333a21.333333 21.333333 0 0 0 0-30.165334zM830.72 685.909333a21.397333 21.397333 0 0 0-29.418667 6.784 341.056 341.056 0 0 1-629.056-148.949333l47.338667 47.338667a21.333333 21.333333 0 0 0 30.165333-30.165334l-85.333333-85.333333a21.333333 21.333333 0 0 0-30.165333 0l-85.333334 85.333333a21.333333 21.333333 0 0 0 30.165334 30.165334l50.368-50.368a383.552 383.552 0 0 0 708.010666 174.592 21.333333 21.333333 0 0 0-6.741333-29.397334z" p-id="3781"></path></svg>